<svg xmlns="http://www.w3.org/2000/svg" viewBox="0 0 32 32">
  <!-- Основной щит -->
  <path d="M16 2 L3 8 L3 15 C3 22.732 8.732 29.464 16 31 C23.268 29.464 29 22.732 29 15 L29 8 L16 2Z" 
        fill="#2563eb" />
  
  <!-- Внутренний щит -->
  <path d="M16 4 L5 9 L5 15 C5 21.732 9.732 27.464 16 29 C22.268 27.464 27 21.732 27 15 L27 9 L16 4Z" 
        fill="#3b82f6" />
  
  <!-- Замочная скважина -->
  <path d="M16 12 C14.343 12 13 13.343 13 15 L13 18 L19 18 L19 15 C19 13.343 17.657 12 16 12 Z" 
        fill="#1e40af"/>
  
  <!-- Основание замка -->
  <rect x="11" y="18" width="10" height="7" rx="1" fill="#1e40af"/>
  
  <!-- Блик -->
  <path d="M7 10 L8 11 L7.5 12" stroke="#60a5fa" fill="none" stroke-width="0.5"/>
</svg>